<svg width="30" height="30" viewBox="0 0 30 30" fill="none" xmlns="http://www.w3.org/2000/svg">
<g clip-path="url(#clip0_39_33)">
<rect width="30" height="30" rx="15" fill="#8DA9A5"/>
<path d="M15 0C12.0333 0 9.13319 0.879735 6.66645 2.52796C4.19972 4.17618 2.27713 6.51886 1.14181 9.25975C0.00649929 12.0006 -0.290551 15.0166 0.288228 17.9264C0.867006 20.8361 2.29562 23.5088 4.39341 25.6066C6.49119 27.7044 9.16394 29.133 12.0737 29.7118C14.9834 30.2906 17.9994 29.9935 20.7403 28.8582C23.4812 27.7229 25.8238 25.8003 27.4721 23.3336C29.1203 20.8668 30 17.9667 30 15C30 11.0218 28.4197 7.20644 25.6066 4.3934C22.7936 1.58035 18.9783 0 15 0V0ZM15.8469 8.0125C19.1875 8.11562 22.075 11.1375 22.0344 14.3781C22.0317 14.4607 22.0369 14.5434 22.05 14.625C22.05 14.8906 22.0344 15.1656 21.6656 15.1562C21.2469 15.1562 21.3063 14.7437 21.2813 14.4281V14.3438C20.8344 10.9063 19.2344 9.27813 15.7469 8.75C15.4563 8.71563 15.0188 8.76563 15.0281 8.39688C15.0688 7.84063 15.5813 8.05625 15.8469 8.0125ZM20.3125 14.2156C20.3133 14.2512 20.3071 14.2865 20.2942 14.3197C20.2812 14.3528 20.2618 14.383 20.2371 14.4086C20.2124 14.4342 20.1829 14.4546 20.1502 14.4687C20.1176 14.4828 20.0824 14.4902 20.0469 14.4906C19.6688 14.5594 19.6094 14.3375 19.5844 14.0875C19.5847 13.9901 19.5764 13.8928 19.5594 13.7969C19.1906 11.7063 18.4375 10.9375 16.2938 10.4625C15.9813 10.3937 15.4875 10.4281 15.575 9.95625C15.6625 9.48438 16.0906 9.64375 16.4313 9.69063C18.5719 9.95625 20.3313 11.7812 20.3219 13.7937C20.3125 13.9156 20.3281 14.0875 20.3125 14.2156ZM18.5313 13.9406C18.4737 13.9721 18.4094 13.9892 18.3438 13.9906C18.2898 13.9969 18.2352 13.9899 18.1845 13.9703C18.1339 13.9507 18.0888 13.9191 18.0531 13.8781C17.9938 13.792 17.9582 13.6918 17.95 13.5875C17.94 13.2029 17.7867 12.836 17.5202 12.5585C17.2537 12.281 16.8932 12.1131 16.5094 12.0875C16.2438 12.0438 15.9781 11.95 16.1063 11.6094C16.1906 11.3688 16.4188 11.3437 16.6375 11.3437C17.575 11.3187 18.7031 12.4406 18.6844 13.4094C18.7038 13.5045 18.6991 13.6029 18.6707 13.6957C18.6423 13.7885 18.5912 13.8727 18.5219 13.9406H18.5313ZM22.0875 19.9719C21.7188 20.9844 20.45 22.0188 19.3625 22.0031C19.1141 21.961 18.8702 21.895 18.6344 21.8062C14.7344 20.1719 11.7188 17.6687 9.66876 14.2406C9.18943 13.4401 8.77157 12.6044 8.41876 11.7406C7.75938 10.1562 8.44376 8.81875 10.1156 8.2625C10.4019 8.16874 10.7106 8.16874 10.9969 8.2625C11.7156 8.52813 13.5156 10.9531 13.55 11.6813C13.575 12.2375 13.2 12.5375 12.8125 12.7875C12.617 12.8913 12.4546 13.048 12.3441 13.2398C12.2336 13.4316 12.1793 13.6507 12.1875 13.8719C12.2064 14.109 12.2678 14.3408 12.3688 14.5563C13.0529 16.0493 14.283 17.2235 15.8063 17.8375C16.3625 18.0875 16.9031 18.0594 17.2875 17.4937C17.9656 16.4906 18.8031 16.5562 19.7219 17.1594C20.1688 17.4719 20.6594 17.7844 21.0844 18.1281C21.6844 18.6125 22.4375 18.9875 22.0781 19.9719H22.0875Z" fill="white"/>
</g>
<defs>
<clipPath id="clip0_39_33">
<rect width="30" height="30" rx="15" fill="white"/>
</clipPath>
</defs>
</svg>
