<svg width="30" height="30" viewBox="0 0 30 30" fill="none" xmlns="http://www.w3.org/2000/svg">
<path fill-rule="evenodd" clip-rule="evenodd" d="M25.4577 0.9375H4.54213C2.5616 0.9375 0.9375 2.56172 0.9375 4.5423V25.4576C0.9375 27.4383 2.5616 29.0625 4.54213 29.0625H25.4577C27.4383 29.0625 29.0625 27.4383 29.0625 25.4577V4.5423C29.0625 2.56172 27.4383 0.9375 25.4577 0.9375ZM24.375 13.0737V14.4856V20.7581C24.375 22.7575 22.7569 24.375 20.757 24.375H9.24041C7.23955 24.375 5.625 22.7575 5.625 20.7581V14.484V13.0737V9.24029C5.625 7.24031 7.23955 5.625 9.24041 5.625H20.757C22.7569 5.625 24.375 7.24031 24.375 9.24029V13.0737Z" fill="#202020"/>
<path fill-rule="evenodd" clip-rule="evenodd" d="M14.9993 18.3021C16.8197 18.3021 18.3039 16.8195 18.3039 14.9988C18.3039 14.4148 18.1455 13.8656 17.8766 13.3876C17.815 13.2802 17.7504 13.1734 17.6775 13.0737C17.076 12.2415 16.1015 11.6964 14.9993 11.6964C13.8964 11.6964 12.9214 12.2415 12.3203 13.0737C12.2481 13.1734 12.183 13.2802 12.1218 13.3876C11.8523 13.8652 11.6946 14.414 11.6946 14.9988C11.6946 16.8196 13.1771 18.3021 14.9993 18.3021Z" fill="#202020"/>
<path fill-rule="evenodd" clip-rule="evenodd" d="M22.2069 10.9572V8.19013V7.77499L21.7952 7.77769L19.0288 7.78607L19.0392 10.9677L22.2069 10.9572Z" fill="#202020"/>
<path fill-rule="evenodd" clip-rule="evenodd" d="M19.9346 13.5982C20.0613 14.0435 20.1319 14.5128 20.1319 14.997C20.1319 17.8274 17.8294 20.1304 14.9994 20.1304C12.1693 20.1304 9.86631 17.8287 9.86631 14.9984C9.86631 14.5141 9.93645 14.0433 10.0628 13.5984C10.1142 13.4182 10.1735 13.2422 10.2437 13.0664H7.44141V14.0459V20.7581C7.44141 21.7504 8.24848 22.5586 9.24041 22.5586H20.757C21.7492 22.5586 22.5586 21.7504 22.5586 20.7581V14.0471V13.0664H19.7529C19.8237 13.2422 19.883 13.4184 19.9346 13.5982Z" fill="#202020"/>
</svg>
