<svg width="30" height="30" viewBox="0 0 30 30" fill="none" xmlns="http://www.w3.org/2000/svg">
<g clip-path="url(#clip0_24_24)">
<path d="M5 0C2.23 0 0 0 4.06754e-09 4.99993C4.06754e-09 4.99993 4.06754e-09 22.2301 4.06754e-09 25C4.06754e-09 27.7699 0.535714 30 5 30H25C28.9286 30 30 27.7699 30 25V4.99993C30 0.535714 27.77 0 25 0H5ZM23.6352 7.14602C24.2899 7.19893 24.4815 7.82155 24.3237 8.55218L21.4014 22.0874C21.2113 22.9677 20.5501 23.0764 19.7534 22.4952L15.625 19.4824L13.3569 21.6723C13.0011 22.0153 12.34 22.115 12.1435 21.5136L10.4419 16.2962L6.41846 15.0268C4.86717 14.5367 5.97832 13.8417 6.50396 13.6376L22.8223 7.30216C23.1475 7.17602 23.4171 7.1307 23.6353 7.14818L23.6352 7.14602ZM20.7397 9.96339C20.6406 9.98229 20.5292 10.0234 20.4272 10.0877L11.2207 15.9227C11.1657 15.9557 11.1046 15.951 11.1621 16.1277L12.6513 20.698L12.9541 17.5924C12.9603 17.5324 12.9628 17.4932 13.0297 17.4337L20.8031 10.4562C21.2326 10.0707 21.0368 9.91071 20.7397 9.96339Z" fill="#202020"/>
</g>
<defs>
<clipPath id="clip0_24_24">
<rect width="30" height="30" fill="white"/>
</clipPath>
</defs>
</svg>
