<svg width="30" height="30" viewBox="0 0 30 30" fill="none" xmlns="http://www.w3.org/2000/svg">
<path fill-rule="evenodd" clip-rule="evenodd" d="M15.1701 7.06946C11.1513 7.06946 7.83881 10.1203 7.45895 14.0112C7.43598 14.2563 7.42285 14.5052 7.42285 14.7579C7.42285 16.4391 7.97035 17.9966 8.89748 19.2645L7.92934 22.119L10.9067 21.1725C12.1305 21.9759 13.5958 22.4442 15.1697 22.4442C19.4412 22.4442 22.9178 18.9958 22.9178 14.7568C22.9178 14.5543 22.9074 14.3537 22.8917 14.156C22.5812 10.198 19.238 7.06946 15.1701 7.06946ZM19.6914 17.9288C19.5022 18.4523 18.5802 18.9579 18.1666 18.9947C17.7532 19.0326 17.7532 19.3316 15.4548 18.4341C13.1599 17.5367 11.7093 15.1993 11.5977 15.0499C11.5114 14.937 11.0189 14.2869 10.7917 13.4955C10.7205 13.2509 10.6748 12.9925 10.6748 12.7323C10.6748 11.6295 11.2587 11.0879 11.4662 10.8645C11.6724 10.6398 11.9169 10.5822 12.068 10.5822C12.2185 10.5822 12.369 10.6007 12.5006 10.6007C12.633 10.6007 12.8204 10.5261 13.0088 10.975C13.1967 11.4237 13.6497 12.5264 13.7056 12.6392C13.7623 12.751 13.8003 12.8821 13.7244 13.0324C13.6706 13.1372 13.6358 13.2156 13.5801 13.2981C13.5571 13.3325 13.5313 13.3678 13.4985 13.4054C13.3856 13.5362 13.2613 13.6975 13.1592 13.7976C13.0466 13.9102 12.9278 14.0309 13.0602 14.2543C13.1909 14.4801 13.6453 15.2129 14.3162 15.807C15.1795 16.5702 15.9075 16.8081 16.1328 16.9196C16.3589 17.0325 16.4905 17.0123 16.6221 16.8633C16.7537 16.7132 17.1873 16.2096 17.3377 15.9847C17.488 15.7604 17.6386 15.7985 17.846 15.8729C18.0532 15.9469 19.1644 16.4893 19.3895 16.6019C19.6159 16.7132 19.7663 16.7695 19.8233 16.8633C19.8787 16.9554 19.8787 17.4052 19.6914 17.9288Z" fill="#202020"/>
<path fill-rule="evenodd" clip-rule="evenodd" d="M25.4577 0.9375H4.54213C2.5616 0.9375 0.9375 2.5616 0.9375 4.54213V25.4577C0.9375 27.4383 2.5616 29.0625 4.54213 29.0625H25.4577C27.4383 29.0625 29.0625 27.4383 29.0625 25.4577V4.54213C29.0625 2.5616 27.4383 0.9375 25.4577 0.9375ZM15.1702 23.9016C13.5551 23.9016 12.0365 23.4884 10.7159 22.7636L5.61393 24.3854L7.27582 19.4783C6.43729 18.1004 5.95441 16.4851 5.95441 14.7579C5.95441 14.6223 5.95846 14.4888 5.96461 14.3546C6.17742 9.49096 10.2166 5.61346 15.1702 5.61346C20.1807 5.61346 24.2541 9.58318 24.3796 14.5247C24.3806 14.6024 24.3849 14.6788 24.3849 14.7578C24.385 19.8084 20.2599 23.9016 15.1702 23.9016Z" fill="#202020"/>
</svg>
